<svg xmlns="http://www.w3.org/2000/svg" xmlns:xlink="http://www.w3.org/1999/xlink" viewBox="100 70 700 160" preserveAspectRatio="xMidYMid meet" version="1.0"><defs><g/><clipPath id="b36f5bbeca"><path d="M 663 118 L 772 118 L 772 225 L 663 225 Z M 663 118 " clip-rule="nonzero"/></clipPath><clipPath id="a25d5dd474"><path d="M 724.257812 96.519531 L 807.746094 195.683594 L 725.203125 265.175781 L 641.714844 166.011719 Z M 724.257812 96.519531 " clip-rule="nonzero"/></clipPath><clipPath id="a9fc03416e"><path d="M 724.257812 96.519531 L 807.746094 195.683594 L 725.203125 265.175781 L 641.714844 166.011719 Z M 724.257812 96.519531 " clip-rule="nonzero"/></clipPath><clipPath id="5bc7dc26f6"><path d="M 713 174 L 772 174 L 772 231 L 713 231 Z M 713 174 " clip-rule="nonzero"/></clipPath><clipPath id="d53407de8c"><path d="M 724.257812 96.519531 L 807.746094 195.683594 L 725.203125 265.175781 L 641.714844 166.011719 Z M 724.257812 96.519531 " clip-rule="nonzero"/></clipPath><clipPath id="3cd739cdd7"><path d="M 724.257812 96.519531 L 807.746094 195.683594 L 725.203125 265.175781 L 641.714844 166.011719 Z M 724.257812 96.519531 " clip-rule="nonzero"/></clipPath></defs><g fill="#000000" fill-opacity="1"><g transform="translate(115.950068, 225.542997)"><g><path d="M 125.078125 -139.078125 C 125.078125 -138.953125 125.039062 -138.789062 124.96875 -138.59375 C 124.90625 -138.40625 124.875 -138.179688 124.875 -137.921875 L 121.625 -120.078125 C 121.488281 -119.054688 120.972656 -118.160156 120.078125 -117.390625 C 119.179688 -116.628906 118.222656 -116.25 117.203125 -116.25 L 78.265625 -116.25 C 74.296875 -116.25 71.128906 -115.507812 68.765625 -114.03125 C 66.398438 -112.5625 64.707031 -109.015625 63.6875 -103.390625 L 60.625 -85.75 L 110.296875 -85.75 C 112.347656 -85.75 113.375 -84.660156 113.375 -82.484375 C 113.375 -82.359375 113.375 -82.265625 113.375 -82.203125 C 113.375 -82.140625 113.375 -82.039062 113.375 -81.90625 L 110.296875 -63.6875 C 110.171875 -62.664062 109.628906 -61.769531 108.671875 -61 C 107.710938 -60.226562 106.722656 -59.84375 105.703125 -59.84375 L 56.015625 -59.84375 L 52.375 -39.515625 C 51.988281 -37.597656 51.796875 -35.9375 51.796875 -34.53125 C 51.796875 -31.457031 52.65625 -29.34375 54.375 -28.1875 C 56.101562 -27.039062 58.757812 -26.46875 62.34375 -26.46875 L 101.28125 -26.46875 C 103.457031 -26.46875 104.546875 -25.382812 104.546875 -23.21875 C 104.546875 -23.082031 104.546875 -22.984375 104.546875 -22.921875 C 104.546875 -22.859375 104.546875 -22.765625 104.546875 -22.640625 L 101.28125 -4.796875 C 100.894531 -2.492188 99.425781 -1.148438 96.875 -0.765625 C 93.414062 -0.253906 88.9375 0.285156 83.4375 0.859375 C 77.945312 1.429688 70.019531 1.71875 59.65625 1.71875 C 53.007812 1.71875 46.550781 0.789062 40.28125 -1.0625 C 34.019531 -2.914062 28.875 -6.175781 24.84375 -10.84375 C 20.8125 -15.507812 18.796875 -21.929688 18.796875 -30.109375 C 18.796875 -31.523438 18.890625 -33.03125 19.078125 -34.625 C 19.273438 -36.21875 19.503906 -37.847656 19.765625 -39.515625 L 31.078125 -103.203125 C 32.734375 -112.535156 35.222656 -119.953125 38.546875 -125.453125 C 41.878906 -130.953125 45.910156 -135.046875 50.640625 -137.734375 C 55.367188 -140.421875 60.675781 -142.175781 66.5625 -143 C 72.445312 -143.832031 78.648438 -144.25 85.171875 -144.25 C 95.523438 -144.25 103.390625 -143.960938 108.765625 -143.390625 C 114.140625 -142.816406 118.425781 -142.273438 121.625 -141.765625 C 123.925781 -141.378906 125.078125 -140.484375 125.078125 -139.078125 Z M 125.078125 -139.078125 "/></g></g></g><g fill="#000000" fill-opacity="1"><g transform="translate(227.398792, 225.542997)"><g><path d="M 126.984375 -107.234375 C 126.984375 -106.847656 126.859375 -106.269531 126.609375 -105.5 L 87.09375 -18.421875 C 84.53125 -12.660156 81.519531 -8.34375 78.0625 -5.46875 C 74.613281 -2.59375 70.972656 -0.675781 67.140625 0.28125 C 63.304688 1.238281 59.46875 1.71875 55.625 1.71875 C 51.914062 1.71875 48.332031 1.238281 44.875 0.28125 C 41.425781 -0.675781 38.519531 -2.59375 36.15625 -5.46875 C 33.789062 -8.34375 32.289062 -12.660156 31.65625 -18.421875 L 23.015625 -105.5 C 23.015625 -105.632812 23.015625 -105.734375 23.015625 -105.796875 C 23.015625 -105.859375 23.015625 -105.890625 23.015625 -105.890625 C 23.015625 -107.035156 23.398438 -107.992188 24.171875 -108.765625 C 24.941406 -109.535156 25.773438 -109.921875 26.671875 -109.921875 L 51.03125 -109.921875 C 52.945312 -109.921875 54.03125 -108.578125 54.28125 -105.890625 L 57.546875 -30.6875 C 57.671875 -28.007812 58.4375 -26.671875 59.84375 -26.671875 C 61.25 -26.671875 62.46875 -28.007812 63.5 -30.6875 L 93.234375 -105.890625 C 94.378906 -108.578125 95.976562 -109.921875 98.03125 -109.921875 L 124.296875 -109.921875 C 126.085938 -109.921875 126.984375 -109.023438 126.984375 -107.234375 Z M 126.984375 -107.234375 "/></g></g></g><g fill="#000000" fill-opacity="1"><g transform="translate(335.778354, 225.542997)"><g><path d="M 116.25 -71.359375 C 116.25 -69.691406 116.148438 -67.992188 115.953125 -66.265625 C 115.765625 -64.546875 115.539062 -62.789062 115.28125 -61 L 113.375 -49.875 C 112.726562 -46.800781 111.128906 -45.265625 108.578125 -45.265625 L 47 -45.265625 C 46.875 -43.859375 46.710938 -42.484375 46.515625 -41.140625 C 46.328125 -39.804688 46.234375 -38.5625 46.234375 -37.40625 C 46.234375 -32.414062 47.539062 -28.929688 50.15625 -26.953125 C 52.78125 -24.972656 57.160156 -23.984375 63.296875 -23.984375 C 67.390625 -23.984375 71.800781 -24.078125 76.53125 -24.265625 C 81.269531 -24.453125 85.8125 -24.707031 90.15625 -25.03125 C 94.507812 -25.351562 97.960938 -25.578125 100.515625 -25.703125 C 102.046875 -25.828125 103.097656 -25.695312 103.671875 -25.3125 C 104.253906 -24.9375 104.414062 -24.046875 104.15625 -22.640625 L 101.484375 -8.0625 C 101.222656 -6.519531 100.800781 -5.363281 100.21875 -4.59375 C 99.644531 -3.832031 98.46875 -3.257812 96.6875 -2.875 C 90.289062 -1.34375 84.050781 -0.195312 77.96875 0.5625 C 71.894531 1.332031 64.703125 1.71875 56.390625 1.71875 C 49.484375 1.71875 42.960938 0.347656 36.828125 -2.390625 C 30.691406 -5.140625 25.703125 -9.328125 21.859375 -14.953125 C 18.023438 -20.585938 16.109375 -27.878906 16.109375 -36.828125 C 16.109375 -38.492188 16.203125 -40.222656 16.390625 -42.015625 C 16.585938 -43.804688 16.816406 -45.660156 17.078125 -47.578125 L 19.375 -61 C 22.3125 -77.75 28.671875 -90.34375 38.453125 -98.78125 C 48.242188 -107.226562 61.003906 -111.453125 76.734375 -111.453125 C 85.429688 -111.453125 92.6875 -109.660156 98.5 -106.078125 C 104.320312 -102.492188 108.734375 -97.695312 111.734375 -91.6875 C 114.742188 -85.675781 116.25 -78.898438 116.25 -71.359375 Z M 87.28125 -72.890625 C 87.28125 -77.367188 86.128906 -80.757812 83.828125 -83.0625 C 81.523438 -85.363281 77.6875 -86.515625 72.3125 -86.515625 C 65.789062 -86.515625 60.835938 -84.5 57.453125 -80.46875 C 54.066406 -76.4375 51.671875 -71.097656 50.265625 -64.453125 L 86.328125 -64.453125 C 86.578125 -65.984375 86.796875 -67.453125 86.984375 -68.859375 C 87.179688 -70.265625 87.28125 -71.609375 87.28125 -72.890625 Z M 87.28125 -72.890625 "/></g></g></g><g fill="#000000" fill-opacity="1"><g transform="translate(448.95349, 225.542997)"><g><path d="M 118.9375 -79.609375 C 118.9375 -76.023438 118.550781 -72.125 117.78125 -67.90625 L 106.65625 -4.03125 C 106.53125 -3.007812 105.953125 -2.082031 104.921875 -1.25 C 103.898438 -0.414062 102.878906 0 101.859375 0 L 78.65625 0 C 77.757812 0 77.019531 -0.316406 76.4375 -0.953125 C 75.863281 -1.597656 75.578125 -2.367188 75.578125 -3.265625 C 75.578125 -3.390625 75.578125 -3.515625 75.578125 -3.640625 C 75.578125 -3.773438 75.578125 -3.90625 75.578125 -4.03125 L 86.703125 -67.90625 C 86.960938 -69.570312 87.1875 -71.109375 87.375 -72.515625 C 87.570312 -73.921875 87.671875 -75.195312 87.671875 -76.34375 C 87.671875 -79.925781 86.675781 -82.390625 84.6875 -83.734375 C 82.707031 -85.078125 80.25 -85.75 77.3125 -85.75 C 73.726562 -85.75 69.921875 -85.046875 65.890625 -83.640625 C 61.859375 -82.234375 58.757812 -80.890625 56.59375 -79.609375 L 43.359375 -4.03125 C 43.222656 -3.007812 42.675781 -2.082031 41.71875 -1.25 C 40.757812 -0.414062 39.769531 0 38.75 0 L 15.53125 0 C 13.363281 0 12.28125 -1.148438 12.28125 -3.453125 C 12.28125 -3.578125 12.28125 -3.671875 12.28125 -3.734375 C 12.28125 -3.804688 12.28125 -3.90625 12.28125 -4.03125 L 30.3125 -106.078125 C 30.5625 -107.097656 31.101562 -107.992188 31.9375 -108.765625 C 32.769531 -109.535156 33.695312 -109.921875 34.71875 -109.921875 L 55.625 -109.921875 C 57.800781 -109.921875 58.890625 -108.832031 58.890625 -106.65625 C 58.890625 -106.53125 58.890625 -106.429688 58.890625 -106.359375 C 58.890625 -106.296875 58.890625 -106.203125 58.890625 -106.078125 L 58.125 -101.484375 C 62.46875 -104.804688 67.257812 -107.296875 72.5 -108.953125 C 77.75 -110.617188 82.929688 -111.453125 88.046875 -111.453125 C 93.546875 -111.453125 98.628906 -110.363281 103.296875 -108.1875 C 107.960938 -106.019531 111.734375 -102.597656 114.609375 -97.921875 C 117.492188 -93.253906 118.9375 -87.148438 118.9375 -79.609375 Z M 118.9375 -79.609375 "/></g></g></g><g fill="#000000" fill-opacity="1"><g transform="translate(563.855037, 225.542997)"><g><path d="M 93.421875 -106.65625 C 93.421875 -106.53125 93.421875 -106.429688 93.421875 -106.359375 C 93.421875 -106.296875 93.421875 -106.203125 93.421875 -106.078125 L 90.546875 -90.546875 C 90.410156 -89.523438 89.894531 -88.628906 89 -87.859375 C 88.113281 -87.085938 87.15625 -86.703125 86.125 -86.703125 L 70.40625 -86.703125 L 60.421875 -30.890625 C 60.035156 -28.585938 59.84375 -26.796875 59.84375 -25.515625 C 59.84375 -24.109375 60.226562 -23.148438 61 -22.640625 C 61.769531 -22.128906 63.175781 -21.875 65.21875 -21.875 L 74.625 -21.875 C 76.925781 -21.875 78.078125 -20.976562 78.078125 -19.1875 C 78.078125 -19.050781 78.078125 -18.953125 78.078125 -18.890625 C 78.078125 -18.828125 78.078125 -18.734375 78.078125 -18.609375 L 75.390625 -3.640625 C 75.003906 -1.472656 73.597656 -0.195312 71.171875 0.1875 C 68.222656 0.695312 65.597656 1.078125 63.296875 1.328125 C 60.992188 1.585938 58.4375 1.71875 55.625 1.71875 C 46.925781 1.71875 40.210938 -0.0351562 35.484375 -3.546875 C 30.753906 -7.066406 28.390625 -12.984375 28.390625 -21.296875 C 28.390625 -22.703125 28.484375 -24.234375 28.671875 -25.890625 C 28.867188 -27.554688 29.09375 -29.285156 29.34375 -31.078125 L 39.140625 -86.703125 L 24.171875 -89.203125 C 21.992188 -89.585938 20.90625 -90.738281 20.90625 -92.65625 C 20.90625 -92.78125 20.90625 -92.875 20.90625 -92.9375 C 20.90625 -93 20.90625 -93.097656 20.90625 -93.234375 L 23.015625 -105.890625 C 23.273438 -106.910156 23.882812 -107.835938 24.84375 -108.671875 C 25.800781 -109.503906 26.789062 -109.921875 27.8125 -109.921875 L 43.15625 -109.921875 L 45.84375 -125.640625 C 46.226562 -127.816406 47.765625 -129.097656 50.453125 -129.484375 L 74.625 -133.515625 C 74.75 -133.515625 74.84375 -133.515625 74.90625 -133.515625 C 74.96875 -133.515625 75.066406 -133.515625 75.203125 -133.515625 C 77.117188 -133.515625 78.078125 -132.617188 78.078125 -130.828125 C 78.078125 -130.703125 78.078125 -130.601562 78.078125 -130.53125 C 78.078125 -130.46875 78.078125 -130.375 78.078125 -130.25 L 74.421875 -109.921875 L 90.15625 -109.921875 C 92.332031 -109.921875 93.421875 -108.832031 93.421875 -106.65625 Z M 93.421875 -106.65625 "/></g></g></g><g clip-path="url(#b36f5bbeca)"><g clip-path="url(#a25d5dd474)"><g clip-path="url(#a9fc03416e)"><path fill="#000000" d="M 703.957031 224.328125 C 693.050781 221.457031 683.613281 215.242188 676.613281 206.972656 L 676.578125 206.933594 C 667.707031 196.390625 662.855469 182.5 664.128906 167.695312 C 665.394531 152.933594 672.5625 140.050781 683.082031 131.195312 L 683.144531 131.144531 C 693.683594 122.269531 707.578125 117.421875 722.359375 118.707031 C 737.140625 119.957031 750.007812 127.105469 758.878906 137.644531 L 758.914062 137.6875 C 765.890625 145.972656 770.382812 156.351562 771.375 167.570312 L 747.617188 165.53125 C 746.542969 160.695312 744.308594 156.261719 741.199219 152.566406 C 736.15625 146.578125 728.816406 142.519531 720.375 141.8125 C 711.917969 141.085938 704.011719 143.855469 698.023438 148.859375 C 692.035156 153.902344 687.976562 161.242188 687.269531 169.683594 C 686.546875 178.140625 689.3125 186.046875 694.316406 192.035156 C 697.429688 195.730469 701.414062 198.683594 705.996094 200.570312 Z M 703.957031 224.328125 " fill-opacity="1" fill-rule="evenodd"/></g></g></g><g clip-path="url(#5bc7dc26f6)"><g clip-path="url(#d53407de8c)"><g clip-path="url(#3cd739cdd7)"><path fill="#ff751f" d="M 715.136719 202.824219 L 713.152344 225.96875 L 743.636719 228.585938 L 766.78125 230.574219 L 768.75 207.410156 L 771.367188 176.921875 L 748.222656 174.933594 C 747.496094 183.394531 743.421875 190.710938 737.472656 195.757812 C 731.5 200.785156 723.578125 203.53125 715.136719 202.824219 Z M 715.136719 202.824219 " fill-opacity="1" fill-rule="evenodd"/></g></g></g></svg>