<svg xmlns="http://www.w3.org/2000/svg" xmlns:xlink="http://www.w3.org/1999/xlink" width="2000" zoomAndPan="magnify" viewBox="0 0 1500 1499.999933" height="2000" preserveAspectRatio="xMidYMid meet" version="1.0"><defs><clipPath id="64ace3ee51"><path d="M 688 727 L 797 727 L 797 834 L 688 834 Z M 688 727 " clip-rule="nonzero"/></clipPath><clipPath id="c0ef999c37"><path d="M 749.300781 705.058594 L 833.347656 804.890625 L 750.730469 874.445312 L 666.683594 774.617188 Z M 749.300781 705.058594 " clip-rule="nonzero"/></clipPath><clipPath id="ffaf5aa319"><path d="M 749.300781 705.058594 L 833.347656 804.890625 L 750.730469 874.445312 L 666.683594 774.617188 Z M 749.300781 705.058594 " clip-rule="nonzero"/></clipPath><clipPath id="7c88694188"><path d="M 738 783 L 797 783 L 797 840 L 738 840 Z M 738 783 " clip-rule="nonzero"/></clipPath><clipPath id="3d23b8badf"><path d="M 749.300781 705.058594 L 833.347656 804.890625 L 750.730469 874.445312 L 666.683594 774.617188 Z M 749.300781 705.058594 " clip-rule="nonzero"/></clipPath><clipPath id="1fa4430bf3"><path d="M 749.300781 705.058594 L 833.347656 804.890625 L 750.730469 874.445312 L 666.683594 774.617188 Z M 749.300781 705.058594 " clip-rule="nonzero"/></clipPath></defs><rect x="-150" width="1800" fill="#ffffff" y="-149.999993" height="1799.99992" fill-opacity="1"/><rect x="-150" width="1800" fill="#ffffff" y="-149.999993" height="1799.99992" fill-opacity="1"/><g clip-path="url(#64ace3ee51)"><g clip-path="url(#c0ef999c37)"><g clip-path="url(#ffaf5aa319)"><path fill="#000000" d="M 728.90625 833.472656 C 717.945312 830.585938 708.460938 824.34375 701.429688 816.035156 L 701.394531 815.996094 C 692.480469 805.40625 687.609375 791.445312 688.882812 776.574219 C 690.15625 761.742188 697.359375 748.796875 707.929688 739.898438 L 707.992188 739.847656 C 718.582031 730.929688 732.542969 726.058594 747.390625 727.351562 C 762.246094 728.609375 775.171875 735.789062 784.085938 746.378906 L 784.121094 746.421875 C 791.132812 754.746094 795.644531 765.171875 796.644531 776.445312 L 772.769531 774.394531 C 771.691406 769.535156 769.445312 765.082031 766.320312 761.371094 C 761.253906 755.351562 753.878906 751.277344 745.398438 750.566406 C 736.902344 749.835938 728.957031 752.621094 722.941406 757.648438 C 716.921875 762.714844 712.847656 770.089844 712.136719 778.570312 C 711.410156 787.066406 714.191406 795.011719 719.21875 801.027344 C 722.34375 804.738281 726.351562 807.707031 730.953125 809.601562 Z M 728.90625 833.472656 " fill-opacity="1" fill-rule="evenodd"/></g></g></g><g clip-path="url(#7c88694188)"><g clip-path="url(#3d23b8badf)"><g clip-path="url(#1fa4430bf3)"><path fill="#ff751f" d="M 740.136719 811.867188 L 738.140625 835.121094 L 768.773438 837.75 L 792.027344 839.746094 L 794.003906 816.472656 L 796.632812 785.84375 L 773.378906 783.847656 C 772.652344 792.34375 768.554688 799.695312 762.578125 804.765625 C 756.578125 809.816406 748.617188 812.578125 740.136719 811.867188 Z M 740.136719 811.867188 " fill-opacity="1" fill-rule="evenodd"/></g></g></g></svg>