<svg xmlns="http://www.w3.org/2000/svg" xmlns:xlink="http://www.w3.org/1999/xlink" viewBox="350 350 750 750" preserveAspectRatio="xMidYMid meet" version="1.0"><defs><clipPath id="0550626e55"><path d="M 386 418 L 1027 418 L 1027 1049 L 386 1049 Z M 386 418 " clip-rule="nonzero"/></clipPath><clipPath id="233d6c7d6e"><path d="M 745.863281 287.757812 L 1243.867188 879.289062 L 753.890625 1291.796875 L 255.886719 700.265625 Z M 745.863281 287.757812 " clip-rule="nonzero"/></clipPath><clipPath id="965e65b6af"><path d="M 745.863281 287.757812 L 1243.867188 879.289062 L 753.890625 1291.796875 L 255.886719 700.265625 Z M 745.863281 287.757812 " clip-rule="nonzero"/></clipPath><clipPath id="9e0b2fce20"><path d="M 679 754 L 1027 754 L 1027 1086 L 679 1086 Z M 679 754 " clip-rule="nonzero"/></clipPath><clipPath id="c004ae6c2e"><path d="M 745.863281 287.757812 L 1243.867188 879.289062 L 753.890625 1291.796875 L 255.886719 700.265625 Z M 745.863281 287.757812 " clip-rule="nonzero"/></clipPath><clipPath id="e94ba1db42"><path d="M 745.863281 287.757812 L 1243.867188 879.289062 L 753.890625 1291.796875 L 255.886719 700.265625 Z M 745.863281 287.757812 " clip-rule="nonzero"/></clipPath></defs><g clip-path="url(#0550626e55)"><g clip-path="url(#233d6c7d6e)"><g clip-path="url(#965e65b6af)"><path fill="#000000" d="M 625.042969 1048.492188 C 560.121094 1031.394531 503.9375 994.414062 462.292969 945.195312 L 462.082031 944.949219 C 409.261719 882.210938 380.402344 799.511719 387.964844 711.414062 C 395.503906 623.542969 438.164062 546.871094 500.777344 494.15625 L 501.148438 493.84375 C 563.890625 441.023438 646.585938 412.160156 734.558594 419.828125 C 822.554688 427.265625 899.121094 469.800781 951.941406 532.539062 L 952.152344 532.785156 C 993.675781 582.109375 1020.414062 643.875 1026.324219 710.65625 L 884.90625 698.515625 C 878.503906 669.730469 865.207031 643.347656 846.695312 621.359375 C 816.675781 585.703125 772.992188 561.550781 722.753906 557.355469 C 672.414062 553.035156 625.355469 569.511719 589.722656 599.300781 C 554.066406 629.316406 529.914062 673 525.71875 723.238281 C 521.394531 773.582031 537.871094 820.636719 567.664062 856.273438 C 586.175781 878.261719 609.90625 895.859375 637.179688 907.074219 Z M 625.042969 1048.492188 " fill-opacity="1" fill-rule="evenodd"/></g></g></g><g clip-path="url(#9e0b2fce20)"><g clip-path="url(#c004ae6c2e)"><g clip-path="url(#e94ba1db42)"><path fill="#ff751f" d="M 691.582031 920.503906 L 679.757812 1058.261719 L 861.21875 1073.835938 L 998.972656 1085.660156 L 1010.695312 947.78125 L 1026.269531 766.320312 L 888.515625 754.496094 C 884.195312 804.839844 859.9375 848.398438 824.511719 878.4375 C 788.980469 908.351562 741.820312 924.703125 691.582031 920.503906 Z M 691.582031 920.503906 " fill-opacity="1" fill-rule="evenodd"/></g></g></g></svg>